<svg id="flag-icon-css-ae" xmlns="http://www.w3.org/2000/svg" viewBox="0 0 512 512">
<defs>
<style>.cls-1{fill:#fff;}.cls-2{fill:#dc171d;}.cls-3{fill:#012a87;}</style>
</defs>
<path class="cls-1" d="M-1,0H512V513.33H-1Z"/>
<path class="cls-2" d="M169.39,0H341.61V513.33H169.39Z"/>
<path class="cls-3" d="M0,168.89H511V341.11H0Z"/>
<g id="a">
<g id="b">
<path id="c" class="cls-1" d="M255.5,176.06l-6.65,20.48,10.23,3.33Z"/>
<path id="c-2" data-name="c" class="cls-1" d="M255.5,176.06l6.65,20.48-10.23,3.33Z"/>
</g>
<g id="b-2" data-name="b">
<path id="c-3" data-name="c" class="cls-1" d="M276,190.94H254.45V201.7Z"/>
<path id="c-4" data-name="c" class="cls-1" d="M276,190.94l-17.41,12.65-6.33-8.7Z"/>
</g>
<g id="b-3" data-name="b">
<path id="c-5" data-name="c" class="cls-1" d="M235,190.94l17.41,12.65,6.33-8.7Z"/>
<path id="c-6" data-name="c" class="cls-1" d="M235,190.94h21.52V201.7Z"/>
</g>
<g id="b-4" data-name="b">
<path id="c-7" data-name="c" class="cls-1" d="M268.15,215l-6.65-20.48-10.24,3.33Z"/>
<path id="c-8" data-name="c" class="cls-1" d="M268.15,215l-17.41-12.65,6.32-8.71Z"/>
</g>
<g id="b-5" data-name="b">
<path id="c-9" data-name="c" class="cls-1" d="M242.85,215l17.41-12.65-6.32-8.71Z"/>
<path id="c-10" data-name="c" class="cls-1" d="M242.85,215l6.65-20.48,10.24,3.33Z"/>
</g>
</g>
<g id="d">
<g id="a-2" data-name="a">
<g id="b-6" data-name="b">
<path id="c-11" data-name="c" class="cls-1" d="M370.31,223.62l-6.65,20.48,10.24,3.32Z"/>
<path id="c-12" data-name="c" class="cls-1" d="M370.31,223.62,377,244.1l-10.24,3.32Z"/>
</g>
<g id="b-7" data-name="b">
<path id="c-13" data-name="c" class="cls-1" d="M390.79,238.5H369.26v10.76Z"/>
<path id="c-14" data-name="c" class="cls-1" d="M390.79,238.5l-17.42,12.65-6.32-8.71Z"/>
</g>
<g id="b-8" data-name="b">
<path id="c-15" data-name="c" class="cls-1" d="M349.84,238.5l17.42,12.65,6.32-8.71Z"/>
<path id="c-16" data-name="c" class="cls-1" d="M349.84,238.5h21.53v10.76Z"/>
</g>
<g id="b-9" data-name="b">
<path id="c-17" data-name="c" class="cls-1" d="M383,262.57l-6.65-20.48-10.24,3.33Z"/>
<path id="c-18" data-name="c" class="cls-1" d="M383,262.57l-17.42-12.66,6.33-8.71Z"/>
</g>
<g id="b-10" data-name="b">
<path id="c-19" data-name="c" class="cls-1" d="M357.66,262.57l17.42-12.66-6.33-8.71Z"/>
<path id="c-20" data-name="c" class="cls-1" d="M357.66,262.57l6.65-20.48,10.24,3.33Z"/>
</g>
</g>
<g id="a-3" data-name="a">
<g id="b-11" data-name="b">
<path id="c-21" data-name="c" class="cls-1" d="M303.06,290.88l-6.65,20.47,10.23,3.33Z"/>
<path id="c-22" data-name="c" class="cls-1" d="M303.06,290.88l6.65,20.47-10.24,3.33Z"/>
</g>
<g id="b-12" data-name="b">
<path id="c-23" data-name="c" class="cls-1" d="M323.53,305.75H302v10.77Z"/>
<path id="c-24" data-name="c" class="cls-1" d="M323.53,305.75l-17.41,12.66-6.33-8.71Z"/>
</g>
<g id="b-13" data-name="b">
<path id="c-25" data-name="c" class="cls-1" d="M282.58,305.75,300,318.41l6.33-8.71Z"/>
<path id="c-26" data-name="c" class="cls-1" d="M282.58,305.75h21.53v10.77Z"/>
</g>
<g id="b-14" data-name="b">
<path id="c-27" data-name="c" class="cls-1" d="M315.71,329.82l-6.65-20.47-10.24,3.33Z"/>
<path id="c-28" data-name="c" class="cls-1" d="M315.71,329.82,298.3,317.17l6.32-8.71Z"/>
</g>
<g id="b-15" data-name="b">
<path id="c-29" data-name="c" class="cls-1" d="M290.4,329.82l17.42-12.65-6.33-8.71Z"/>
<path id="c-30" data-name="c" class="cls-1" d="M290.4,329.82l6.66-20.47,10.23,3.33Z"/>
</g>
</g>
</g>
<g id="d-2" data-name="d">
<g id="a-4" data-name="a">
<g id="b-16" data-name="b">
<path id="c-31" data-name="c" class="cls-1" d="M140.69,223.62l6.65,20.48-10.24,3.32Z"/>
<path id="c-32" data-name="c" class="cls-1" d="M140.69,223.62,134,244.1l10.24,3.32Z"/>
</g>
<g id="b-17" data-name="b">
<path id="c-33" data-name="c" class="cls-1" d="M120.21,238.5h21.53v10.76Z"/>
<path id="c-34" data-name="c" class="cls-1" d="M120.21,238.5l17.42,12.65,6.32-8.71Z"/>
</g>
<g id="b-18" data-name="b">
<path id="c-35" data-name="c" class="cls-1" d="M161.16,238.5l-17.42,12.65-6.32-8.71Z"/>
<path id="c-36" data-name="c" class="cls-1" d="M161.16,238.5H139.63v10.76Z"/>
</g>
<g id="b-19" data-name="b">
<path id="c-37" data-name="c" class="cls-1" d="M128,262.57l6.65-20.48,10.24,3.33Z"/>
<path id="c-38" data-name="c" class="cls-1" d="M128,262.57l17.42-12.66-6.33-8.71Z"/>
</g>
<g id="b-20" data-name="b">
<path id="c-39" data-name="c" class="cls-1" d="M153.34,262.57l-17.42-12.66,6.33-8.71Z"/>
<path id="c-40" data-name="c" class="cls-1" d="M153.34,262.57l-6.65-20.48-10.24,3.33Z"/>
</g>
</g>
<g id="a-5" data-name="a">
<g id="b-21" data-name="b">
<path id="c-41" data-name="c" class="cls-1" d="M207.94,290.88l6.65,20.47-10.23,3.33Z"/>
<path id="c-42" data-name="c" class="cls-1" d="M207.94,290.88l-6.65,20.47,10.24,3.33Z"/>
</g>
<g id="b-22" data-name="b">
<path id="c-43" data-name="c" class="cls-1" d="M187.47,305.75H209v10.77Z"/>
<path id="c-44" data-name="c" class="cls-1" d="M187.47,305.75l17.41,12.66,6.33-8.71Z"/>
</g>
<g id="b-23" data-name="b">
<path id="c-45" data-name="c" class="cls-1" d="M228.42,305.75,211,318.41l-6.33-8.71Z"/>
<path id="c-46" data-name="c" class="cls-1" d="M228.42,305.75H206.89v10.77Z"/>
</g>
<g id="b-24" data-name="b">
<path id="c-47" data-name="c" class="cls-1" d="M195.29,329.82l6.65-20.47,10.24,3.33Z"/>
<path id="c-48" data-name="c" class="cls-1" d="M195.29,329.82l17.41-12.65-6.32-8.71Z"/>
</g>
<g id="b-25" data-name="b">
<path id="c-49" data-name="c" class="cls-1" d="M220.6,329.82l-17.42-12.65,6.33-8.71Z"/>
<path id="c-50" data-name="c" class="cls-1" d="M220.6,329.82l-6.66-20.47-10.23,3.33Z"/>
</g>
</g>
</g>
</svg>